# xmcd
#
# Track frame offsets: 
#        182
#        21235
#        34852
#        46720
#        61810
#        80872
#        95465
#        114135
#        128527
#        144865
#
# Disc length: 2105 seconds
#
# Revision: 2
# Processed by: cddbd v1.5.2PL0 Copyright (c) Steve Scherf et al.
# Submitted via: ExactAudioCopyFreeDBPlugin 1.0
#
DISCID=7408370a
DTITLE=Timmy Thomas - Why Can't We Live Together
DYEAR=1993
DGENRE=Soul
TTITLE0=Why Can't We Live Together
TTITLE1=Rainbow Power
TTITLE2=Take Care of Home
TTITLE3=The First Time Ever I Saw Your Face
TTITLE4=The Coldest Days of My Life
TTITLE5=In the Beginning
TTITLE6=Cold Cold People
TTITLE7=Opportunity
TTITLE8=Dizzy Dizzy World
TTITLE9=Funky Me
EXTD=
EXTT0=
EXTT1=
EXTT2=
EXTT3=
EXTT4=
EXTT5=
EXTT6=
EXTT7=
EXTT8=
EXTT9=
PLAYORDER=
